<?xml version="1.0" encoding="utf-8"?>
<!-- Svg Vector Icons : http://www.onlinewebfonts.com/icon -->
<!DOCTYPE svg PUBLIC "-//W3C//DTD SVG 1.1//EN" "http://www.w3.org/Graphics/SVG/1.1/DTD/svg11.dtd">
<svg version="1.1" xmlns="http://www.w3.org/2000/svg" xmlns:xlink="http://www.w3.org/1999/xlink" x="0px" y="0px" viewBox="0 0 1000 1000" enable-background="new 0 0 1000 1000" xml:space="preserve">
<metadata> Svg Vector Icons : http://www.onlinewebfonts.com/icon </metadata>
<g><g><g id="Current"><g><path d="M500,10C229.4,10,10,229.4,10,500c0,270.6,219.4,490,490,490c270.6,0,490-219.4,490-490C990,229.4,770.6,10,500,10z M547.4,892V784.5c0-26.2-21.2-47.4-47.4-47.4c-26.2,0-47.4,21.2-47.4,47.4V892c-180-21.7-323-164.6-344.6-344.6h107.5c26.2,0,47.4-21.2,47.4-47.4c0-26.2-21.2-47.4-47.4-47.4H108c21.7-180,164.6-323,344.6-344.6v107.5c0,26.2,21.2,47.4,47.4,47.4c26.2,0,47.4-21.2,47.4-47.4V108c180,21.7,323,164.6,344.6,344.6H784.5c-26.2,0-47.4,21.2-47.4,47.4c0,26.2,21.2,47.4,47.4,47.4H892C870.4,727.4,727.4,870.4,547.4,892z"/></g></g></g><g></g><g></g><g></g><g></g><g></g><g></g><g></g><g></g><g></g><g></g><g></g><g></g><g></g><g></g><g></g></g>
</svg>